<svg width="708" height="644" viewBox="0 0 708 644" fill="none" xmlns="http://www.w3.org/2000/svg">
<g clip-path="url(#clip0)">
<path d="M264.042 333.04C283.31 312.395 292.199 314.448 300.647 307.948C301.386 327.1 296.16 342.869 293.633 355.749C289.504 346.115 277.117 331.663 264.042 333.04Z" fill="#5FFFCA"/>
<path d="M543.629 364.541C535.635 350.685 531.806 340.401 525.053 332.154C540.511 333.086 549.58 347.255 555.008 352.929C551.847 352.639 544.109 356.278 543.629 364.541Z" fill="#5FFFCA"/>
<path d="M535.252 290.608C523.032 272.277 499.699 279.648 497.739 282.324L526.218 332.891C534.551 327.185 547.159 308.468 535.252 290.608Z" fill="#5FFFCA"/>
<path d="M156.222 262.746C159.185 263.921 159.877 266.501 160.273 268.387C160.668 270.273 161.458 271.163 162.94 271.75C164.422 272.338 165.311 271.538 167.188 271.129C168.769 270.027 171.041 268.622 174.004 269.797C176.968 270.972 177.66 273.552 178.055 275.438C178.451 277.324 179.241 278.214 180.723 278.802C182.205 279.389 183.094 278.589 184.971 278.18C186.551 277.078 188.823 275.673 191.787 276.848C194.751 278.023 195.443 280.603 195.838 282.489C196.234 284.376 197.024 285.265 198.506 285.853C199.494 286.245 199.79 286.939 199.395 287.935C199 288.931 198.309 289.233 197.321 288.842C194.357 287.667 193.665 285.086 193.27 283.2C192.874 281.314 192.084 280.424 190.602 279.837C189.12 279.249 188.231 280.05 186.354 280.458C184.774 281.561 182.502 282.966 179.538 281.79C176.574 280.615 175.882 278.035 175.487 276.149C175.092 274.263 174.301 273.373 172.819 272.786C171.337 272.198 170.448 272.998 168.572 273.407C166.991 274.51 164.719 275.914 161.755 274.739C158.791 273.564 158.1 270.984 157.704 269.098C157.309 267.212 156.518 266.322 155.037 265.734C154.049 265.343 153.752 264.649 154.147 263.652C154.542 262.656 155.234 262.354 156.222 262.746Z" fill="#FFDA00"/>
<path d="M524.026 181.989C519.831 177.781 515.413 169.949 519.195 160.59C522.977 151.23 533.17 149.183 536.328 137.826C539.486 126.469 532.363 120.9 535.387 107.58C538.411 94.2612 550.865 94.5889 547.568 77.4732" stroke="#5FFFCA" stroke-width="6.64644" stroke-linecap="round"/>
<circle cx="219.598" cy="551.463" r="49.7967" fill="#3229BB"/>
<circle cx="238.638" cy="319.182" r="6.12578" stroke="#D74590" stroke-width="1.89898" stroke-linecap="round"/>
<circle cx="460.19" cy="151.86" r="4.22361" stroke="#D74590" stroke-width="1.89898" stroke-linecap="round"/>
<path d="M171.734 557.318C175.537 552.173 187.052 541.818 192.12 543.99C199.437 547.126 190.774 555.219 195.256 558.625C201.789 563.591 208.463 547.342 214.907 553.201C220.656 558.428 193.406 578.009 195.722 593.555" stroke="#FFDA00" stroke-width="2.77119" stroke-linecap="round"/>
<path d="M174.985 531.902C177.028 529.314 185.2 524.547 194.189 529.45C204.386 535.012 216.84 538.595 224.425 531.902C231.371 525.773 229.328 509.429 226.468 504.526" stroke="#FFDA00" stroke-width="2.77119" stroke-linecap="round"/>
<path d="M190.511 514.332C195.005 518.418 206.725 523.434 211.349 520.461C217.069 516.784 214.618 506.569 211.758 501.666" stroke="#FFDA00" stroke-width="2.77119" stroke-linecap="round"/>
<path d="M294.728 412.245L289.032 390.982L454.015 317.355L531.712 463.69C525.883 465.531 512.384 469.948 505.021 472.893C495.818 476.575 412.066 493.141 403.783 504.185C397.157 513.02 411.63 516.852 420.099 518.364L362.328 541.956L345.403 505.333C358.902 504.719 380.486 500.829 387.112 495.675C393.739 490.521 391.262 482.853 388.501 480.398C388.501 480.398 393.36 476.095 400.723 468.733C408.085 461.37 401.993 458.242 397.025 449.209C409.672 432.948 373.719 430.557 360.527 430.557C360.527 430.557 367.89 425.035 364.208 416.752C357.713 409.321 320.449 416.784 294.728 412.245Z" fill="#5807BE"/>
<mask id="mask0" mask-type="alpha" maskUnits="userSpaceOnUse" x="289" y="317" width="243" height="225">
<path d="M294.728 412.245L289.032 390.982L454.015 317.355L531.712 463.69C525.883 465.531 512.384 469.948 505.021 472.893C495.818 476.575 412.066 493.141 403.783 504.185C397.157 513.02 411.63 516.852 420.099 518.364L362.328 541.956L345.403 505.333C358.902 504.719 380.486 500.829 387.112 495.675C393.739 490.521 391.262 482.853 388.501 480.398C388.501 480.398 393.36 476.095 400.723 468.733C408.085 461.37 401.993 458.242 397.025 449.209C409.672 432.948 373.719 430.557 360.527 430.557C360.527 430.557 367.89 425.035 364.208 416.752C357.713 409.321 320.449 416.784 294.728 412.245Z" fill="#5807BE"/>
</mask>
<g mask="url(#mask0)">
<path d="M320.106 528.138C322.419 535.69 324.743 543.556 327.226 551.379C330.602 561.997 334.408 572.501 337.451 583.207C339.579 590.692 340.763 598.462 342.375 606.094C344.101 614.282 345.975 622.428 347.491 630.653C348.471 635.992 348.929 641.417 349.55 646.823C349.675 647.909 349.781 649.162 349.384 650.13C345.946 658.633 343.309 667.588 335.536 673.578C332.67 675.792 330.13 678.424 327.321 680.694C322.843 684.333 317.758 686.662 312.001 687.678C309.427 688.125 306.816 688.918 304.46 690.049C299.194 692.576 293.594 693.409 287.892 693.899C287.213 693.951 286.477 693.948 285.822 693.77C282.628 692.909 279.385 692.169 276.296 691.005C274.997 690.522 274.06 689.099 272.968 688.099C272.273 687.457 271.675 686.666 270.891 686.136C268.909 684.783 267.885 683.155 266.986 680.741C266.036 678.206 264.785 675.82 264.581 673.048C264.508 672.082 264.328 671.065 264.501 670.147C266.833 658.419 267.055 646.428 268.822 634.638C269.638 629.156 269.993 623.626 271.727 618.291C272.318 616.477 272.329 614.477 272.501 612.548C272.625 611.091 272.114 610.062 270.782 609.064C267.354 606.498 264.306 603.597 261.531 600.197C259.122 597.222 256.658 593.432 252.024 592.851C251.394 592.772 250.36 591.727 250.402 591.203C250.671 587.808 246.97 587.056 246.065 584.478C245.897 584.004 244.952 583.62 244.321 583.54C242.298 583.266 240.67 582.783 239.684 580.607C238.561 578.117 238.451 575.613 239.646 573.426C241.902 569.322 244.196 565.213 247.947 562.088C253.205 557.728 257.699 552.456 263.767 549.077C265.472 548.123 267.169 547.106 268.98 546.417C273.73 544.594 277.289 541.339 280.2 537.311C282.16 534.607 284.037 531.837 285.995 529.12C289.781 523.866 294.584 520.405 301.398 520.533C302.097 520.542 302.871 520.44 303.461 520.714C307.522 522.499 311.556 524.376 315.596 526.202C316.987 526.826 318.371 527.389 320.106 528.138Z" fill="#6308C4"/>
<path d="M578.766 410.54C579.728 419.032 579.043 427.206 574.773 434.868C573.994 436.26 573.651 438.02 573.57 439.636C573.007 450.756 565.537 460.379 555.053 463.961C542.397 468.298 529.838 472.928 517.242 477.461C516.329 477.793 515.397 478.178 514.625 478.748C512.329 480.403 510.316 481.545 507.716 478.896C506.711 477.873 504.547 478.033 502.966 477.519C499.394 476.347 495.799 475.192 492.305 473.822C490.766 473.227 489.015 472.454 488.06 471.21C484.306 466.354 478.503 464.642 473.726 461.371C470.738 459.323 467.691 457.307 464.982 454.924C463.754 453.838 462.686 451.937 462.566 450.344C462.134 444.259 461.938 438.134 462.012 432.041C462.12 424.249 462.543 416.447 462.891 408.653C463.211 401.495 466.09 395.194 469.712 389.174C471.127 386.811 471.974 384.019 474.709 382.655C475.333 382.343 475.875 381.762 476.508 381.639C480.528 380.861 483.263 378.055 486.374 375.763C489.017 373.815 492.072 373.35 495.433 374.014C500.314 374.985 505.268 375.82 510.219 376.187C513.891 376.462 517.328 375.017 520.137 372.531C523.406 369.626 525.473 369.402 529.376 371.686C530.314 372.236 531.293 372.806 532.331 373.117C537.378 374.65 542.448 376.168 547.532 377.583C553.087 379.121 558.084 381.76 562.762 385.056C563.783 385.773 564.849 386.435 565.913 387.085C572.733 391.247 576.671 397.373 578.133 405.136C578.464 406.919 578.56 408.743 578.766 410.54Z" fill="#6308C4"/>
<path d="M234.968 286.863C237.009 287.071 239.785 287.17 242.47 287.684C247.399 288.636 252.381 289.493 257.159 291.006C263.991 293.169 269.698 297.359 275.037 302.096C278.963 305.579 282.129 309.846 286.572 312.852C288.265 314.011 289.453 316.291 290.255 318.311C291.893 322.411 292.985 326.726 294.55 330.859C295.822 334.204 297.704 337.34 298.841 340.726C299.886 343.857 300.344 347.182 300.948 350.452C301.118 351.381 301.172 352.513 300.797 353.341C298.648 358.04 299.045 363.155 298.173 368.049C297.865 369.78 297.284 371.681 296.235 373.041C293.277 376.884 290.013 380.497 286.844 384.162C286.026 385.104 285.109 385.955 284.18 386.809C282.758 388.123 281.449 389.652 279.824 390.635C272.161 395.259 263.974 398.97 255.473 401.603C246.764 404.298 237.846 404.512 229.481 399.818C228.396 399.209 227.33 398.433 226.549 397.486C220.436 390.092 213.919 383.048 209.741 374.168C207.51 369.427 203.811 365.387 201.203 360.791C197.344 354.024 193.77 347.085 190.28 340.111C188.879 337.3 189.383 335.509 191.834 333.545C194.099 331.729 195.385 329.444 196.532 326.845C197.76 324.061 199.508 321.495 201.193 318.936C203.796 314.981 206.659 311.199 209.166 307.18C213.912 299.577 219.981 293.327 227.854 288.982C229.714 287.947 232.033 287.706 234.968 286.863Z" fill="#6308C4"/>
<path d="M439.758 301.413C440.92 301.482 442.006 301.547 443.41 301.626C443.976 307.215 443.581 312.067 439.114 316.134C430.583 323.919 421.003 330.294 411.493 336.736C406.091 340.392 400.342 343.57 394.581 346.647C392.836 347.581 390.559 347.741 388.502 347.838C377.765 348.337 367.023 348.799 356.281 349.033C353.712 349.088 350.965 348.581 348.596 347.613C346.987 346.963 345.788 345.14 344.595 343.696C343.198 342.023 342.244 339.906 340.657 338.456C336.111 334.323 331.747 330.119 328.216 324.996C326.542 322.57 323.736 320.894 321.384 318.963C318.932 316.942 316.132 315.316 316.375 311.354C316.438 310.246 315.112 308.969 314.242 307.918C313.447 306.959 312.444 306.176 311.477 305.377C305.312 300.291 307.157 290.175 311.975 286.181C316.26 282.628 320.371 278.88 324.553 275.2C325.485 274.371 326.387 273.496 327.262 272.612C329.229 270.628 331.28 268.937 334.092 268.02C336.672 267.18 338.976 265.486 341.416 264.194C346.199 261.659 350.981 259.124 355.796 256.648C359.39 254.806 363.035 253.072 366.63 251.243C368.871 250.1 371.142 250.105 373.481 250.81C375.885 251.534 378.39 252.03 380.641 253.075C381.9 253.651 382.739 255.111 383.963 256.374C390.436 257.402 397.002 259.026 401.718 264.632C401.894 264.84 402.142 265.014 402.394 265.111C410.482 268.496 416.004 275.376 423.007 280.251C425.503 281.988 427.059 285.048 429.086 287.459C432.037 290.953 435.092 294.359 437.997 297.896C438.761 298.808 439.108 300.058 439.758 301.413Z" fill="#6308C4"/>
<path d="M391.523 502.52C394.146 502.712 396.046 502.468 397.684 503.039C400.827 504.12 403.36 503.197 405.909 501.538C406.83 500.939 407.892 500.577 408.963 500.075C414.237 503.365 418.987 506.956 422.642 512.051C426.597 517.555 430.92 522.839 435.424 527.926C438.063 530.912 440.928 533.77 443.791 536.503C447.295 539.845 447.343 543.356 446.266 547.122C444.818 552.184 442.649 557.05 440.978 562.048C440.372 563.838 439.665 565.969 440.101 567.664C441.272 572.235 440.729 576.56 439.041 580.751C437.225 585.261 435.117 589.664 433.02 594.041C432.486 595.14 431.617 596.188 430.651 596.944C426.754 600.01 422.815 603.043 418.738 605.876C417.74 606.573 416.106 606.811 414.854 606.626C412.377 606.265 409.927 605.585 407.545 604.834C395.347 601.01 382.71 599.653 370.098 598.078C365.001 597.436 359.952 596.321 354.911 595.281C351.74 594.62 350.142 592.527 349.367 589.314C348.594 586.114 347.37 582.966 345.913 579.996C340.568 569.124 336.996 557.796 335.986 545.68C335.415 538.827 336.95 532.313 339.247 526.028C340.357 522.992 342.344 519.968 344.718 517.773C348.032 514.711 352.471 514.264 356.898 515.147C360.831 515.923 364.779 516.507 368.335 518.755C371.439 520.713 374.759 518.915 377.467 517.529C381.157 515.638 384.507 513.002 387.831 510.47C390.152 508.698 392.435 506.703 391.523 502.52Z" fill="#6308C4"/>
<path d="M498.806 610.433C497.295 610.974 495.813 611.65 494.271 612.029C492.149 612.551 489.934 612.704 487.83 613.275C484.496 614.176 480.997 614.856 477.954 616.407C473.543 618.647 469.333 619.762 464.172 619.672C456.699 619.543 451.748 616.19 447.398 610.896C446.691 610.042 445.81 609.333 444.966 608.608C441.223 605.395 440.896 601.106 441.931 596.864C442.812 593.271 444.564 589.857 446.154 586.474C447.599 583.374 448.603 580.299 447.952 576.832C447.619 575.036 447.82 573.368 448.946 571.683C450.007 570.094 450.661 568.172 451.17 566.305C452.33 562.048 455.326 558.529 455.749 553.927C455.929 551.958 456.871 550.446 455.432 548.296C453.838 545.899 456.227 541.084 459.282 538.962C460.985 537.78 462.466 536.092 464.338 535.384C467.668 534.116 471.207 533.343 474.686 532.488C480.335 531.093 486.379 531.36 491.662 528.439C501.204 523.157 513.248 526.644 518.749 536.106C521.327 540.554 524.085 544.905 526.995 549.149C528.062 550.709 529.68 551.991 531.255 553.113C534.667 555.542 538.055 558.088 541.739 560.017C545.666 562.071 548.126 565.381 550.506 568.763C553.764 573.386 552.668 578.419 549.944 582.54C547.091 586.852 544.238 591.505 539.502 594.225C537.025 595.635 534.374 597.293 531.67 597.603C527.315 598.116 523.894 600.583 520.026 602.026C516.012 603.525 512.429 606.124 508.515 607.94C505.517 609.334 502.284 610.236 499.167 611.366C499.043 611.064 498.931 610.748 498.806 610.433Z" fill="#6308C4"/>
<path d="M271.001 485.581C266.403 485.198 261.891 485.336 257.663 484.304C253.865 483.374 250.874 480.53 249.171 476.855C245.11 468.112 242.195 458.96 240.311 449.512C239.864 447.274 240.252 444.801 240.62 442.482C241.336 437.998 241.086 433.612 240.011 429.219C239.61 427.608 239.393 425.938 239.24 424.273C239.054 422.208 239.717 420.588 241.599 419.297C245.596 416.549 249.458 413.613 253.305 410.667C256.827 407.973 260.86 406.422 265.081 405.406C271.329 403.918 276.608 400.402 282.054 397.348C284.461 395.997 286.105 393.189 287.937 390.917C292.288 385.51 297.378 381.118 303.732 378.124C307.847 376.184 311.603 377.739 315.352 378.903C316.036 379.115 316.454 380.99 316.559 382.129C317.069 387.674 317.364 393.231 317.912 398.771C318.089 400.535 318.308 402.66 319.362 403.892C322.365 407.393 321.994 411.787 323.172 415.75C324.382 419.773 325.098 423.801 324.704 428.097C324.147 434.182 324.114 440.308 323.737 446.41C323.66 447.621 323.113 448.822 322.715 449.993C321.605 453.258 320.67 456.603 319.253 459.726C318.492 461.382 317.111 463.058 315.559 464.008C312.619 465.8 309.371 467.122 306.21 468.535C303.507 469.743 301.164 471.315 299.277 473.669C297.626 475.744 295.061 476.165 292.598 476.701C291.273 476.979 290 477.492 288.707 477.944C287.402 478.398 286.098 479.306 284.804 479.303C281.164 479.304 278.513 481.29 275.702 483.106C274.227 484.072 272.606 484.751 271.001 485.581Z" fill="#6308C4"/>
<path d="M507.111 318.85C499.52 319.898 491.935 321.123 484.315 321.922C479.201 322.459 473.966 322.934 468.876 322.456C464.235 322.027 459.655 320.365 455.85 317.386C453.997 315.942 452.84 314.152 452.196 311.633C451.25 307.921 449.412 304.401 447.635 300.962C446.248 298.275 444.544 295.7 442.697 293.307C440.938 291.029 438.93 288.895 436.803 286.938C434.349 284.677 434.069 283.457 435.717 280.46C436.577 278.894 437.182 277.205 437.948 275.587C438.478 274.463 438.921 273.236 439.69 272.313C443.527 267.723 447.518 263.268 451.325 258.644C452.316 257.442 452.734 255.775 453.553 254.404C455.382 251.335 457.194 248.218 459.229 245.29C460.678 243.213 462.903 242.376 465.497 242.761C467.072 242.998 468.196 242.843 469.373 241.279C471.167 238.897 474.093 239.194 476.743 239.737C486.423 241.737 496.072 243.804 505.736 245.882C507.738 246.31 509.705 246.869 511.68 247.388C516.715 248.708 519.055 253.511 523.077 256.174C523.902 256.724 524.444 258.357 524.381 259.465C524.226 262.645 523.651 265.81 523.33 268.984C523.196 270.353 523.091 271.756 523.245 273.104C523.652 276.536 524.615 279.955 524.628 283.381C524.644 292.133 524.968 300.925 522.413 309.491C521.635 312.11 521.001 314.207 517.578 314.005C516.608 313.952 515.398 315.014 514.578 315.829C512.503 317.864 510.105 319.075 507.111 318.85Z" fill="#6308C4"/>
<path d="M418.637 381.389C421.408 381.552 424.285 381.31 426.913 381.995C429.855 382.757 432.657 382.967 435.584 382.391C439.218 381.67 442.435 382.844 445.594 384.505C447.917 385.731 450.364 386.715 452.653 387.982C453.506 388.454 454.43 389.322 454.696 390.202C455.942 394.309 457.062 398.43 456.744 402.844C456.449 407.014 456.779 411.213 456.445 415.375C456.186 418.53 455.643 421.754 454.653 424.739C453.305 428.79 452.546 432.786 452.972 437.05C453.235 439.676 453.556 442.359 451.317 444.513C450.894 444.916 450.933 445.81 450.795 446.483C449.049 455.361 444.308 462.015 436.223 466.283C431.906 468.562 427.671 471.009 423.341 473.29C421.595 474.211 419.802 474.834 417.799 473.521C417.223 473.145 416.015 473.562 415.154 473.8C412.733 474.47 410.373 475.348 407.942 475.943C405.142 476.631 404.805 476.126 403.358 473.801C399.87 468.167 397.881 462.008 395.991 455.71C394.569 450.941 391.968 446.521 390.287 441.819C388.218 436.061 386.611 430.135 384.676 424.324C384.074 422.508 383.068 420.815 382.185 419.095C381.549 417.865 380.61 416.758 380.158 415.469C378.864 411.823 376.878 408.117 379.173 404.236C382.158 399.188 385.225 394.194 391.433 392.368C393.679 391.705 395.796 390.589 397.996 389.755C399.028 389.358 400.119 388.916 401.203 388.855C403.374 388.758 404.702 387.846 405.937 386.009C406.761 384.789 408.495 383.869 409.995 383.456C412.797 382.667 415.74 382.341 418.623 381.821C418.632 381.681 418.628 381.529 418.637 381.389Z" fill="#6308C4"/>
<path d="M582.774 258.201C586.788 258.246 590.801 258.291 594.827 258.335C597.583 258.36 600.357 258.218 603.106 258.409C606.367 258.641 608.439 260.997 609.76 263.552C611.632 267.157 612.533 271.025 611.167 275.255C610.513 277.291 610.397 279.708 610.803 281.811C612.309 289.734 611.341 297.435 608.653 304.84C606.282 311.373 604.642 317.861 605.758 324.816C605.993 326.307 605.243 327.291 604.513 328.552C600.031 336.251 588.998 337.379 582.12 334.146C578.901 332.631 575.478 332.088 572.143 331.99C565.691 331.807 559.431 330.755 553.217 329.217C552.002 328.914 550.775 328.498 549.715 327.886C542.536 323.689 536.81 318.236 534.402 309.962C534.129 309.019 533.929 308.056 533.548 307.163C531.477 302.278 533.251 298.28 536.375 294.556C538.306 292.26 540.195 289.931 542.125 287.635C543.108 286.472 544.092 285.322 545.146 284.227C546.766 282.536 547.884 280.788 548.607 278.352C549.815 274.292 552.155 270.583 556.194 268.311C559.208 266.611 561.873 264.193 565.018 262.858C570.64 260.454 576.643 259.157 582.774 258.201Z" fill="#6308C4"/>
<path d="M488.829 371.52C483.696 372.11 478.518 372.527 473.425 373.352C469.713 373.943 466.632 372.526 463.426 371.224C463.172 371.114 462.892 370.994 462.705 370.801C461.714 369.789 460.898 368.542 459.76 367.799C458.636 367.068 457.156 366.884 455.866 366.362C452.859 365.139 451.044 362.59 449.44 360.003C447.71 357.192 446.816 353.942 444.609 351.286C443.667 350.155 444.112 347.839 444.033 346.052C443.984 344.958 444.454 343.752 444.163 342.761C442.854 338.32 445.429 335.343 447.887 332.328C450.111 329.606 453.227 328.464 456.57 327.751C463.331 326.317 470.172 326.354 477.018 326.542C478.839 326.599 480.694 326.74 482.458 326.411C487.525 325.475 492.477 326.399 497.488 326.848C499.821 327.061 502.191 327.042 504.534 326.899C510.794 326.51 517.046 325.615 523.286 325.72C526.157 325.758 529.2 327.293 531.773 328.819C533.856 330.06 535.084 332.36 535.965 334.839C537.942 340.456 538.497 346.287 538.837 352.117C539.132 357.118 536.005 362.701 529.156 363.702C522.818 364.62 516.666 366.718 510.366 367.972C503.236 369.398 496.038 370.452 488.871 371.667C488.855 371.631 488.836 371.583 488.829 371.52Z" fill="#6308C4"/>
<path d="M418.811 489.62C420.25 487.899 422.067 487.046 424.185 486.157C427.308 484.85 430.089 482.558 432.739 480.343C435.715 477.864 438.482 475.118 441.166 472.317C443.66 469.729 446.407 467.807 450.122 467.57C450.538 467.548 451.032 467.542 451.35 467.328C456.914 463.641 461.111 467.498 465.396 470.016C467.898 471.475 470.143 473.468 472.207 475.533C474.671 477.995 477.687 479.18 480.859 480.296C483.331 481.163 485.643 482.516 488.037 483.595C489.04 484.049 490.097 484.636 491.156 484.692C494.143 484.855 495.993 486.489 497.363 488.925C499.529 492.762 502.02 496.448 503.738 500.475C504.847 503.068 505.123 506.135 505.225 509.007C505.333 511.942 504.031 513.078 501.217 513.983C499.773 514.44 498.41 515.166 497.02 515.768C495.741 516.332 494.494 517.298 493.186 517.397C489.099 517.702 485.959 519.96 482.469 521.714C474.286 525.791 465.872 529.4 457.473 533.034C454.646 534.256 451.631 534.071 449.161 532.002C445.752 529.155 442.166 526.43 439.226 523.137C433.013 516.198 427.027 509.03 422.28 500.935C419.293 495.801 419.222 495.847 418.811 489.62Z" fill="#6308C4"/>
<path d="M319.718 515.482C318.735 516.429 317.711 517.344 316.787 518.348C314.592 520.776 311.835 521.181 309.562 518.836C305.026 514.132 299.234 511.079 294.393 506.815C291.853 504.577 289.768 502.211 289.562 498.427C289.369 494.869 287.959 491.426 289.183 487.731C290.674 483.259 293.211 479.831 297.621 477.92C297.755 477.867 297.889 477.826 298.007 477.749C303.781 473.684 310.618 472.026 316.944 469.225C323.294 466.422 329.358 462.892 335.327 459.31C341.629 455.538 349.455 456.195 354.408 461.445C356.302 463.467 357.98 465.703 359.964 467.625C361.347 468.959 363.07 469.938 364.666 471.019C368.585 473.669 369.554 480.78 366.246 484.12C362.95 487.446 360.4 491.533 356.2 493.951C354.785 494.771 353.395 495.702 352.147 496.769C350.68 498.025 349.275 499.375 348.065 500.88C346.501 502.831 345.186 504.968 343.721 507.008C343.316 507.573 342.862 508.144 342.309 508.524C337.512 511.819 332.648 515.085 327.026 516.717C324.988 517.305 322.532 516.461 320.277 516.265C320.109 516.018 319.913 515.75 319.718 515.482Z" fill="#6308C4"/>
<path d="M325.237 384.347C321.979 382.596 322.09 379.699 322.842 376.526C324.417 369.805 325.798 363.044 327.516 356.358C328.05 354.273 329.161 352.235 330.416 350.459C331.528 348.877 333.195 347.598 335.392 347.952C338.675 348.486 342.084 348.791 345.201 349.862C352.32 352.321 359.407 354.935 366.289 357.978C369.923 359.584 373.224 362.039 376.441 364.427C379.284 366.542 379.349 369.646 378.263 372.781C375.626 380.421 373.651 388.186 373.724 396.337C373.757 400.267 372.545 403.745 370.141 406.779C368.146 409.285 366.097 411.772 363.873 414.051C360.808 417.186 356.558 417.737 352.727 415.849C350.159 414.588 347.571 413.368 344.952 412.214C341.787 410.831 338.592 409.516 335.387 408.227C334.255 407.762 333.072 407.177 331.887 407.136C329.047 407.032 327.666 405.281 326.634 403.034C325.823 401.267 324.997 399.49 324.429 397.633C324.042 396.362 323.88 394.951 324.007 393.633C324.256 390.607 324.772 387.588 325.237 384.347Z" fill="#6308C4"/>
<path d="M528.104 525.216C523.841 525.87 522.662 525.322 520.919 521.411C518.595 516.201 516.443 510.933 514.205 505.688C513.98 505.169 513.782 504.661 513.558 504.143C510.758 497.545 510.988 497.114 516.095 491.771C518.293 489.483 520.054 486.814 523.174 485.595C523.818 485.344 524.421 484.744 525.051 484.709C529.312 484.473 532.375 481.655 535.927 479.894C536.179 479.764 536.501 479.701 536.655 479.494C539.013 476.39 541.804 474.956 545.625 476.971C545.963 477.148 546.661 476.827 547.117 476.598C548.185 476.07 549.386 474.819 550.211 475.041C551.885 475.481 553.775 476.364 554.826 477.673C556.573 479.851 558.484 481.693 560.643 483.482C564.021 486.281 566.109 490.216 567.852 494.241C570.216 499.687 572.506 505.167 574.772 510.649C576.736 515.382 575.266 520.029 573.398 524.202C572.56 526.07 569.527 527.278 567.254 528.133C561.308 530.372 554.979 530.707 548.705 531.085C547.484 531.162 546.246 530.659 545.006 530.46C542.552 530.084 540.046 529.246 537.655 529.521C533.445 529.979 530.398 528.52 528.104 525.216Z" fill="#6308C4"/>
<path d="M388.06 455.356C389.569 459.66 390.754 464.129 392.695 468.219C394.1 471.17 395.095 474.091 395.637 477.267C396.148 480.282 396.996 483.246 397.693 486.227C398.335 488.949 398.169 491.371 395.819 493.437C394.874 494.267 394.459 495.731 393.902 496.959C392.544 499.936 391.084 500.141 388.464 498.203C382.948 494.131 378.278 489.253 375.042 483.275C372.415 478.403 370.409 473.194 368.311 468.072C367.026 464.943 365.795 462.504 362.08 460.97C358.578 459.525 354.63 457.069 354.253 452.129C354.187 451.225 353.552 450.337 353.113 449.489C351.657 446.646 350.131 443.848 348.699 440.99C347.615 438.837 346.593 436.349 347.807 434.211C349.483 431.248 351.295 428.131 354.833 426.801C358.833 425.292 362.836 423.808 367.217 423.849C367.903 423.859 368.849 423.484 369.241 423.806C372.299 426.352 376.529 426.739 379.351 429.995C383.299 434.551 386.261 439.245 386.643 445.45C386.844 448.741 387.825 451.98 388.452 455.235C388.328 455.262 388.193 455.303 388.06 455.356Z" fill="#6308C4"/>
<path d="M383.162 369.486C383.381 367.412 383.497 364.337 384.092 361.347C384.706 358.292 387.193 356.539 389.622 354.818C390.936 353.895 391.935 352.541 393.221 351.584C395.43 349.951 397.726 348.398 400.073 346.964C405.407 343.708 410.912 340.723 416.123 337.279C420.602 334.311 424.218 335.312 427.218 339.231C431.159 344.394 435.954 348.929 439.979 354.045C442.876 357.735 445.157 361.913 447.623 365.931C448.716 367.715 448.348 369.263 446.661 370.696C444.256 372.73 441.961 374.512 438.464 373.547C437.586 373.306 436.343 373.968 435.411 374.467C432.174 376.217 428.812 377.312 425.11 377.661C421.508 377.998 417.967 378.86 414.37 379.349C406.565 380.422 398.753 380.105 391.052 378.763C386.783 378.039 383.586 374.168 383.162 369.486Z" fill="#6308C4"/>
</g>
<path d="M356.243 429.569C333.392 425.537 314.238 423.184 293.215 411.236C316.379 411.216 342.123 412.09 355.248 412.245C371.029 412.431 367.526 431.56 356.243 429.569Z" fill="#5FFFCA"/>
<path d="M439.767 489.132C459.261 489.354 480.819 482.801 506.479 473.587C489.123 470.333 449.699 471.271 437.812 473.948C425.982 476.613 429.182 489.011 439.767 489.132Z" fill="#5FFFCA"/>
<path d="M346.408 484.646C360.111 485.118 389.786 483.134 398.858 471.415C407.93 459.697 400.433 452.672 395.55 450.624" stroke="#5FFFCA" stroke-width="2.77119" stroke-linecap="round"/>
<path d="M265.009 568.309C260.211 575.81 249.376 565.768 243.513 571.435C239.07 575.731 245.712 579.909 246.249 584.919C246.842 590.445 237.26 597.425 227.294 598.598" stroke="#FFDA00" stroke-width="2.77119" stroke-linecap="round"/>
<path d="M281.202 398.718C287.224 414.274 308.301 415.278 308.301 415.278" stroke="#5FFFCA" stroke-width="2.77119" stroke-linecap="round"/>
<path d="M172.696 628.62C173.134 633.441 252.465 635.194 253.78 627.743C255.095 620.292 172.257 619.416 172.696 628.62Z" fill="#0B006C"/>
<path d="M335.059 629.922C336.277 643.331 556.913 648.207 560.571 627.484C558.001 620.602 336.326 618.763 335.059 629.922Z" fill="#0B006C"/>
<path d="M343.273 461.357C356.977 461.829 387.312 459.948 397.027 448.756C405.106 439.449 397.931 431.14 354.118 427.527" stroke="#5FFFCA" stroke-width="2.77119" stroke-linecap="round"/>
<path d="M264.179 533.212C259.883 535.667 256.862 539.944 259.644 544.685C261.315 547.533 266.224 548.76 268.883 548.351" stroke="#FFDA00" stroke-width="2.77119" stroke-linecap="round"/>
<path d="M182.398 582.25C184.324 577.183 195.066 567.556 189.087 564.313C184.107 561.612 179.663 568.468 174.596 569.38" stroke="#FFDA00" stroke-width="2.77119" stroke-linecap="round"/>
<path d="M541.832 460.045C479.975 487.734 408.846 491.721 402.427 503.184C394.749 516.892 421.427 520.035 453.165 517.019M421.427 520.035C417.832 522.939 408.824 529.155 411.232 535.503C415.099 545.698 450.328 543.181 468.578 536.13" stroke="#5FFFCA" stroke-width="2.77119" stroke-linecap="round"/>
<path d="M260.128 0L300.312 156.083" stroke="#6308C0" stroke-width="1.89898" stroke-linecap="round"/>
<path d="M194.485 141.187L220.682 177.014" stroke="#5FFFCA" stroke-width="1.89898" stroke-linecap="round"/>
<path d="M440.833 110.52L432.657 191.406" stroke="#5FFFCA" stroke-width="1.89898" stroke-linecap="round"/>
<path d="M226.699 92.6339L232.266 103.552" stroke="#FFDA00" stroke-width="1.89898" stroke-linecap="round"/>
<path d="M301.089 308.792C271.837 320.001 214.027 374.867 235.831 438.179C266.854 528.26 384.322 505.167 391.187 491.806C394.336 485.676 390.113 480.937 386.559 479.843" stroke="#5FFFCA" stroke-width="2.77119" stroke-linecap="round"/>
<path d="M526.266 331.577C563.679 346.585 586.716 389.376 580.353 440.281C568.535 534.818 453.09 562.241 426.577 552.166C420.135 549.718 424.704 544.944 427.982 543.189" stroke="#5FFFCA" stroke-width="2.77119" stroke-linecap="round"/>
<path d="M490.918 333.745L490.939 319.946" stroke="#5FFFCA" stroke-width="2.77119" stroke-linecap="round"/>
<path d="M497.674 299.585L485.978 292.264" stroke="#5FFFCA" stroke-width="2.77119" stroke-linecap="round"/>
<path d="M489.91 365.202L497.625 353.762" stroke="#5FFFCA" stroke-width="2.77119" stroke-linecap="round"/>
<path d="M324.45 179.88L307.017 73.1408L315.223 57.9816L329.595 173.578L324.45 179.88Z" fill="#5FFFCA"/>
<path d="M510.831 393.51L499.766 385.265" stroke="#5FFFCA" stroke-width="2.77119" stroke-linecap="round"/>
<path d="M521.169 346.138L507.581 343.737" stroke="#5FFFCA" stroke-width="2.77119" stroke-linecap="round"/>
<path d="M538.287 377.839L525.142 373.644" stroke="#5FFFCA" stroke-width="2.77119" stroke-linecap="round"/>
<path d="M476.933 325.307L465.302 317.882" stroke="#5FFFCA" stroke-width="2.77119" stroke-linecap="round"/>
<path d="M469.614 296.296L468.239 282.566" stroke="#5FFFCA" stroke-width="2.77119" stroke-linecap="round"/>
<path d="M248.374 511.78C253.233 516.702 256.24 523.25 247.719 534.392C240.786 543.459 241.533 551.338 248.104 556.858C252.518 560.567 261.511 563.43 269.396 560.276" stroke="#FFDA00" stroke-width="2.77119" stroke-linecap="round"/>
<path d="M289.032 389.747L305.094 292.796L462.962 221.584L454.015 318.536L289.032 389.747Z" stroke="#5FFFCA" stroke-width="2.77119" stroke-linejoin="round"/>
<path d="M464.414 221.987L548.575 373.349" stroke="#5FFFCA" stroke-width="2.77119" stroke-linecap="round" stroke-linejoin="round"/>
<path d="M548.608 373.138L530.05 463.579" stroke="#5FFFCA" stroke-width="2.77119" stroke-linecap="round" stroke-linejoin="round"/>
<path d="M305.036 293.308L341.908 366.963" stroke="#5FFFCA" stroke-width="2.77119" stroke-linecap="round" stroke-linejoin="round"/>
<path d="M373.201 192.527C388.172 173.692 369.942 153.655 385.588 142.359C401.234 131.063 423.143 155.788 428.179 197.866C432.395 233.085 431.124 261.263 407.655 281.954C384.187 302.645 358.687 288.609 358.687 288.609C358.687 288.609 331.129 274.312 333.319 243.878C335.509 213.444 358.23 211.361 373.201 192.527Z" fill="#400090"/>
<path d="M440.571 211.823C445.097 194.013 453.723 178.961 472.169 172.786C490.615 166.611 507.304 175.751 506.071 189.705C504.556 206.849 485.305 204.829 476.265 220.901C467.225 236.973 454.287 245.234 446.434 242.151C438.58 239.068 436.044 229.633 440.571 211.823Z" fill="#FFDA00"/>
<path d="M402.683 304.025C401.586 293.953 409.724 281.193 421.983 280.386C434.242 279.579 441.017 287.806 441.178 296.678C441.347 305.975 435.048 312.163 425.37 314.744C415.692 317.325 403.781 314.097 402.683 304.025Z" fill="#D74590"/>
<path d="M185.794 221.655C180.885 228.035 170.898 228.108 163.423 221.83C155.949 215.552 156.586 207.108 161.371 201.931C166.386 196.506 173.402 196.42 180.372 200.261C187.342 204.102 190.702 215.275 185.794 221.655Z" fill="#D74590"/>
<path d="M360.853 107.32C356.04 105.34 354.182 100.437 355.983 95.3147C357.785 90.1926 362.305 88.8681 365.939 90.3436C369.746 91.8897 371.167 95.5244 370.535 99.906C369.903 104.288 365.667 109.3 360.853 107.32Z" fill="#FFDA00"/>
<path d="M274.475 299.926C260.589 348.353 311.874 372.812 336.59 367.393C351.368 361.059 382.546 347.601 382.546 347.601C406.843 304.487 367.993 258.751 325.652 273.506C358.426 216.983 287.495 152.924 235.815 198.265C185.223 242.652 225.574 308.79 274.475 299.926Z" fill="#D74590"/>
<path d="M313.872 287.651C313.872 287.651 322.145 282.018 327.073 273.393" stroke="#201678" stroke-width="1.89898" stroke-linecap="round"/>
<path d="M267.318 302.422C267.318 302.422 277.244 301.14 285.54 295.676" stroke="#201678" stroke-width="1.89898" stroke-linecap="round"/>
<path d="M507.297 294.253C507.297 294.253 501.621 283.158 497.622 275.547" stroke="#201678" stroke-width="1.89898" stroke-linecap="round"/>
</g>
<defs>
<clipPath id="clip0">
<rect width="708" height="644" fill="white"/>
</clipPath>
</defs>
<script xmlns="">try {
                        Object.defineProperty(screen, "availTop", { value: 0 });
                    } catch (e) {}
                    try {
                        Object.defineProperty(screen, "availLeft", { value: 0 });
                    } catch (e) {}
                    try {
                        Object.defineProperty(screen, "availWidth", { value: 1920 });
                    } catch (e) {}
                    try {
                        Object.defineProperty(screen, "availHeight", { value: 1080 });
                    } catch (e) {}
                    try {
                        Object.defineProperty(screen, "colorDepth", { value: 24 });
                    } catch (e) {}
                    try {
                        Object.defineProperty(screen, "pixelDepth", { value: 24 });
                    } catch (e) {}
                    try {
                        Object.defineProperty(navigator, "hardwareConcurrency", { value: 8 });
                    } catch (e) {}
                    try {
                        Object.defineProperty(navigator, "appVersion", { value: "5.0 (X11)" });
                    } catch (e) {}
                    try {
                        Object.defineProperty(navigator, "doNotTrack", { value: "unspecified" });
                    } catch (e) {}
                    
            try {
                window.screenY = 0
            } catch (e) { }
        
            try {
                window.screenTop = 0
            } catch (e) { }
        
            try {
                window.top.window.outerHeight = window.screen.height
            } catch (e) { }
        
            try {
                window.screenX = 0
            } catch (e) { }
        
            try {
                window.screenLeft = 0
            } catch (e) { }
        
            try {
                window.top.window.outerWidth = window.screen.width
            } catch (e) { }
        </script></svg>